<svg width="148" height="39" viewBox="0 0 148 39" fill="none" xmlns="http://www.w3.org/2000/svg">
<g filter="url(#filter0_d_2_766)">
<mask id="path-1-outside-1_2_766" maskUnits="userSpaceOnUse" x="4" y="0" width="140" height="31" fill="black">
<rect fill="white" x="4" width="140" height="31"/>
<path d="M11.64 1.32C13.9067 1.32 15.56 1.85333 16.6 2.92C17.64 3.96 18.16 5.57333 18.16 7.76V8.76C18.16 11.64 17.2133 13.52 15.32 14.4C17.5067 15.2533 18.6 17.2533 18.6 20.4V22.68C18.6 24.84 18.0267 26.4933 16.88 27.64C15.76 28.76 14.1067 29.32 11.92 29.32H5V1.32H11.64ZM11.36 16.72H9.4V25.32H11.92C12.6933 25.32 13.2667 25.12 13.64 24.72C14.0133 24.2933 14.2 23.5733 14.2 22.56V20.12C14.2 18.84 13.9733 17.96 13.52 17.48C13.0933 16.9733 12.3733 16.72 11.36 16.72ZM11.52 5.32H9.4V12.72H11.12C12 12.72 12.6533 12.4933 13.08 12.04C13.5333 11.5867 13.76 10.8267 13.76 9.76V8.2C13.76 6.28 13.0133 5.32 11.52 5.32Z"/>
<path d="M25.29 7.76V22.88C25.29 24.72 26.05 25.64 27.57 25.64C29.09 25.64 29.85 24.72 29.85 22.88V7.76C29.85 5.92 29.09 5 27.57 5C26.05 5 25.29 5.92 25.29 7.76ZM20.89 22.6V8.04C20.89 5.8 21.4633 4.06666 22.61 2.84C23.7567 1.61333 25.41 1 27.57 1C29.73 1 31.3833 1.61333 32.53 2.84C33.6767 4.06666 34.25 5.8 34.25 8.04V22.6C34.25 24.84 33.6767 26.5733 32.53 27.8C31.3833 29.0267 29.73 29.64 27.57 29.64C25.41 29.64 23.7567 29.0267 22.61 27.8C21.4633 26.5733 20.89 24.84 20.89 22.6Z"/>
<path d="M41.1494 7.76V22.88C41.1494 24.72 41.9094 25.64 43.4294 25.64C44.9494 25.64 45.7094 24.72 45.7094 22.88V7.76C45.7094 5.92 44.9494 5 43.4294 5C41.9094 5 41.1494 5.92 41.1494 7.76ZM36.7494 22.6V8.04C36.7494 5.8 37.3227 4.06666 38.4694 2.84C39.616 1.61333 41.2694 1 43.4294 1C45.5894 1 47.2427 1.61333 48.3894 2.84C49.536 4.06666 50.1094 5.8 50.1094 8.04V22.6C50.1094 24.84 49.536 26.5733 48.3894 27.8C47.2427 29.0267 45.5894 29.64 43.4294 29.64C41.2694 29.64 39.616 29.0267 38.4694 27.8C37.3227 26.5733 36.7494 24.84 36.7494 22.6Z"/>
<path d="M63.0088 29.32L58.7288 18.16L57.3688 20.72V29.32H52.9688V1.32H57.3688V13.52L63.1287 1.32H67.5288L61.4088 13.8L67.5288 29.32H63.0088Z"/>
<path d="M68.7759 8.04C68.7759 5.77333 69.3226 4.04 70.4159 2.84C71.5093 1.61333 73.1226 1 75.2559 1C77.3893 1 79.0026 1.61333 80.0959 2.84C81.1893 4.04 81.7359 5.77333 81.7359 8.04V8.92H77.5759V7.76C77.5759 5.92 76.8426 5 75.3759 5C73.9093 5 73.1759 5.92 73.1759 7.76C73.1759 8.53333 73.3359 9.26667 73.6559 9.96C73.9759 10.6533 74.3893 11.28 74.8959 11.84C75.4026 12.4 75.9626 12.96 76.5759 13.52C77.1893 14.0533 77.7893 14.6267 78.3759 15.24C78.9893 15.8267 79.5493 16.4667 80.0559 17.16C80.5626 17.8267 80.9759 18.6267 81.2959 19.56C81.6159 20.4933 81.7759 21.5067 81.7759 22.6C81.7759 24.8667 81.2159 26.6133 80.0959 27.84C78.9759 29.04 77.3493 29.64 75.2159 29.64C73.0826 29.64 71.4559 29.04 70.3359 27.84C69.2159 26.6133 68.6559 24.8667 68.6559 22.6V20.88H72.8159V22.88C72.8159 24.6933 73.5759 25.6 75.0959 25.6C76.6159 25.6 77.3759 24.6933 77.3759 22.88C77.3759 21.84 77.0826 20.8667 76.4959 19.96C75.9093 19.0267 75.1893 18.1867 74.3359 17.44C73.5093 16.6933 72.6693 15.92 71.8159 15.12C70.9626 14.2933 70.2426 13.28 69.6559 12.08C69.0693 10.8533 68.7759 9.50667 68.7759 8.04Z"/>
<path d="M83.0169 5.32V1.32H96.6169V5.32H92.0169V29.32H87.6169V5.32H83.0169Z"/>
<path d="M102.595 7.76V22.88C102.595 24.72 103.355 25.64 104.875 25.64C106.395 25.64 107.155 24.72 107.155 22.88V7.76C107.155 5.92 106.395 5 104.875 5C103.355 5 102.595 5.92 102.595 7.76ZM98.1947 22.6V8.04C98.1947 5.8 98.768 4.06666 99.9147 2.84C101.061 1.61333 102.715 1 104.875 1C107.035 1 108.688 1.61333 109.835 2.84C110.981 4.06666 111.555 5.8 111.555 8.04V22.6C111.555 24.84 110.981 26.5733 109.835 27.8C108.688 29.0267 107.035 29.64 104.875 29.64C102.715 29.64 101.061 29.0267 99.9147 27.8C98.768 26.5733 98.1947 24.84 98.1947 22.6Z"/>
<path d="M128.094 29.32H123.614C123.347 28.52 123.214 27.3733 123.214 25.88V21.48C123.214 20.2 122.987 19.2933 122.534 18.76C122.081 18.2 121.347 17.92 120.334 17.92H118.814V29.32H114.414V1.32H121.054C123.321 1.32 124.974 1.85333 126.014 2.92C127.054 3.96 127.574 5.57333 127.574 7.76V9.96C127.574 12.84 126.614 14.7333 124.694 15.64C126.641 16.4667 127.614 18.4533 127.614 21.6V25.92C127.614 27.44 127.774 28.5733 128.094 29.32ZM120.934 5.32H118.814V13.92H120.534C121.414 13.92 122.067 13.6933 122.494 13.24C122.947 12.7867 123.174 12.0267 123.174 10.96V8.2C123.174 6.28 122.427 5.32 120.934 5.32Z"/>
<path d="M134.908 5.32V13.12H140.948V17.12H134.908V25.32H142.508V29.32H130.508V1.32H142.508V5.32H134.908Z"/>
</mask>
<path d="M11.64 1.32C13.9067 1.32 15.56 1.85333 16.6 2.92C17.64 3.96 18.16 5.57333 18.16 7.76V8.76C18.16 11.64 17.2133 13.52 15.32 14.4C17.5067 15.2533 18.6 17.2533 18.6 20.4V22.68C18.6 24.84 18.0267 26.4933 16.88 27.64C15.76 28.76 14.1067 29.32 11.92 29.32H5V1.32H11.64ZM11.36 16.72H9.4V25.32H11.92C12.6933 25.32 13.2667 25.12 13.64 24.72C14.0133 24.2933 14.2 23.5733 14.2 22.56V20.12C14.2 18.84 13.9733 17.96 13.52 17.48C13.0933 16.9733 12.3733 16.72 11.36 16.72ZM11.52 5.32H9.4V12.72H11.12C12 12.72 12.6533 12.4933 13.08 12.04C13.5333 11.5867 13.76 10.8267 13.76 9.76V8.2C13.76 6.28 13.0133 5.32 11.52 5.32Z" fill="#313037"/>
<path d="M25.29 7.76V22.88C25.29 24.72 26.05 25.64 27.57 25.64C29.09 25.64 29.85 24.72 29.85 22.88V7.76C29.85 5.92 29.09 5 27.57 5C26.05 5 25.29 5.92 25.29 7.76ZM20.89 22.6V8.04C20.89 5.8 21.4633 4.06666 22.61 2.84C23.7567 1.61333 25.41 1 27.57 1C29.73 1 31.3833 1.61333 32.53 2.84C33.6767 4.06666 34.25 5.8 34.25 8.04V22.6C34.25 24.84 33.6767 26.5733 32.53 27.8C31.3833 29.0267 29.73 29.64 27.57 29.64C25.41 29.64 23.7567 29.0267 22.61 27.8C21.4633 26.5733 20.89 24.84 20.89 22.6Z" fill="#313037"/>
<path d="M41.1494 7.76V22.88C41.1494 24.72 41.9094 25.64 43.4294 25.64C44.9494 25.64 45.7094 24.72 45.7094 22.88V7.76C45.7094 5.92 44.9494 5 43.4294 5C41.9094 5 41.1494 5.92 41.1494 7.76ZM36.7494 22.6V8.04C36.7494 5.8 37.3227 4.06666 38.4694 2.84C39.616 1.61333 41.2694 1 43.4294 1C45.5894 1 47.2427 1.61333 48.3894 2.84C49.536 4.06666 50.1094 5.8 50.1094 8.04V22.6C50.1094 24.84 49.536 26.5733 48.3894 27.8C47.2427 29.0267 45.5894 29.64 43.4294 29.64C41.2694 29.64 39.616 29.0267 38.4694 27.8C37.3227 26.5733 36.7494 24.84 36.7494 22.6Z" fill="#313037"/>
<path d="M63.0088 29.32L58.7288 18.16L57.3688 20.72V29.32H52.9688V1.32H57.3688V13.52L63.1287 1.32H67.5288L61.4088 13.8L67.5288 29.32H63.0088Z" fill="#313037"/>
<path d="M68.7759 8.04C68.7759 5.77333 69.3226 4.04 70.4159 2.84C71.5093 1.61333 73.1226 1 75.2559 1C77.3893 1 79.0026 1.61333 80.0959 2.84C81.1893 4.04 81.7359 5.77333 81.7359 8.04V8.92H77.5759V7.76C77.5759 5.92 76.8426 5 75.3759 5C73.9093 5 73.1759 5.92 73.1759 7.76C73.1759 8.53333 73.3359 9.26667 73.6559 9.96C73.9759 10.6533 74.3893 11.28 74.8959 11.84C75.4026 12.4 75.9626 12.96 76.5759 13.52C77.1893 14.0533 77.7893 14.6267 78.3759 15.24C78.9893 15.8267 79.5493 16.4667 80.0559 17.16C80.5626 17.8267 80.9759 18.6267 81.2959 19.56C81.6159 20.4933 81.7759 21.5067 81.7759 22.6C81.7759 24.8667 81.2159 26.6133 80.0959 27.84C78.9759 29.04 77.3493 29.64 75.2159 29.64C73.0826 29.64 71.4559 29.04 70.3359 27.84C69.2159 26.6133 68.6559 24.8667 68.6559 22.6V20.88H72.8159V22.88C72.8159 24.6933 73.5759 25.6 75.0959 25.6C76.6159 25.6 77.3759 24.6933 77.3759 22.88C77.3759 21.84 77.0826 20.8667 76.4959 19.96C75.9093 19.0267 75.1893 18.1867 74.3359 17.44C73.5093 16.6933 72.6693 15.92 71.8159 15.12C70.9626 14.2933 70.2426 13.28 69.6559 12.08C69.0693 10.8533 68.7759 9.50667 68.7759 8.04Z" fill="#313037"/>
<path d="M83.0169 5.32V1.32H96.6169V5.32H92.0169V29.32H87.6169V5.32H83.0169Z" fill="#313037"/>
<path d="M102.595 7.76V22.88C102.595 24.72 103.355 25.64 104.875 25.64C106.395 25.64 107.155 24.72 107.155 22.88V7.76C107.155 5.92 106.395 5 104.875 5C103.355 5 102.595 5.92 102.595 7.76ZM98.1947 22.6V8.04C98.1947 5.8 98.768 4.06666 99.9147 2.84C101.061 1.61333 102.715 1 104.875 1C107.035 1 108.688 1.61333 109.835 2.84C110.981 4.06666 111.555 5.8 111.555 8.04V22.6C111.555 24.84 110.981 26.5733 109.835 27.8C108.688 29.0267 107.035 29.64 104.875 29.64C102.715 29.64 101.061 29.0267 99.9147 27.8C98.768 26.5733 98.1947 24.84 98.1947 22.6Z" fill="#313037"/>
<path d="M128.094 29.32H123.614C123.347 28.52 123.214 27.3733 123.214 25.88V21.48C123.214 20.2 122.987 19.2933 122.534 18.76C122.081 18.2 121.347 17.92 120.334 17.92H118.814V29.32H114.414V1.32H121.054C123.321 1.32 124.974 1.85333 126.014 2.92C127.054 3.96 127.574 5.57333 127.574 7.76V9.96C127.574 12.84 126.614 14.7333 124.694 15.64C126.641 16.4667 127.614 18.4533 127.614 21.6V25.92C127.614 27.44 127.774 28.5733 128.094 29.32ZM120.934 5.32H118.814V13.92H120.534C121.414 13.92 122.067 13.6933 122.494 13.24C122.947 12.7867 123.174 12.0267 123.174 10.96V8.2C123.174 6.28 122.427 5.32 120.934 5.32Z" fill="#313037"/>
<path d="M134.908 5.32V13.12H140.948V17.12H134.908V25.32H142.508V29.32H130.508V1.32H142.508V5.32H134.908Z" fill="#313037"/>
<path d="M11.64 1.32C13.9067 1.32 15.56 1.85333 16.6 2.92C17.64 3.96 18.16 5.57333 18.16 7.76V8.76C18.16 11.64 17.2133 13.52 15.32 14.4C17.5067 15.2533 18.6 17.2533 18.6 20.4V22.68C18.6 24.84 18.0267 26.4933 16.88 27.64C15.76 28.76 14.1067 29.32 11.92 29.32H5V1.32H11.64ZM11.36 16.72H9.4V25.32H11.92C12.6933 25.32 13.2667 25.12 13.64 24.72C14.0133 24.2933 14.2 23.5733 14.2 22.56V20.12C14.2 18.84 13.9733 17.96 13.52 17.48C13.0933 16.9733 12.3733 16.72 11.36 16.72ZM11.52 5.32H9.4V12.72H11.12C12 12.72 12.6533 12.4933 13.08 12.04C13.5333 11.5867 13.76 10.8267 13.76 9.76V8.2C13.76 6.28 13.0133 5.32 11.52 5.32Z" stroke="black" stroke-width="2" mask="url(#path-1-outside-1_2_766)"/>
<path d="M25.29 7.76V22.88C25.29 24.72 26.05 25.64 27.57 25.64C29.09 25.64 29.85 24.72 29.85 22.88V7.76C29.85 5.92 29.09 5 27.57 5C26.05 5 25.29 5.92 25.29 7.76ZM20.89 22.6V8.04C20.89 5.8 21.4633 4.06666 22.61 2.84C23.7567 1.61333 25.41 1 27.57 1C29.73 1 31.3833 1.61333 32.53 2.84C33.6767 4.06666 34.25 5.8 34.25 8.04V22.6C34.25 24.84 33.6767 26.5733 32.53 27.8C31.3833 29.0267 29.73 29.64 27.57 29.64C25.41 29.64 23.7567 29.0267 22.61 27.8C21.4633 26.5733 20.89 24.84 20.89 22.6Z" stroke="black" stroke-width="2" mask="url(#path-1-outside-1_2_766)"/>
<path d="M41.1494 7.76V22.88C41.1494 24.72 41.9094 25.64 43.4294 25.64C44.9494 25.64 45.7094 24.72 45.7094 22.88V7.76C45.7094 5.92 44.9494 5 43.4294 5C41.9094 5 41.1494 5.92 41.1494 7.76ZM36.7494 22.6V8.04C36.7494 5.8 37.3227 4.06666 38.4694 2.84C39.616 1.61333 41.2694 1 43.4294 1C45.5894 1 47.2427 1.61333 48.3894 2.84C49.536 4.06666 50.1094 5.8 50.1094 8.04V22.6C50.1094 24.84 49.536 26.5733 48.3894 27.8C47.2427 29.0267 45.5894 29.64 43.4294 29.64C41.2694 29.64 39.616 29.0267 38.4694 27.8C37.3227 26.5733 36.7494 24.84 36.7494 22.6Z" stroke="black" stroke-width="2" mask="url(#path-1-outside-1_2_766)"/>
<path d="M63.0088 29.32L58.7288 18.16L57.3688 20.72V29.32H52.9688V1.32H57.3688V13.52L63.1287 1.32H67.5288L61.4088 13.8L67.5288 29.32H63.0088Z" stroke="black" stroke-width="2" mask="url(#path-1-outside-1_2_766)"/>
<path d="M68.7759 8.04C68.7759 5.77333 69.3226 4.04 70.4159 2.84C71.5093 1.61333 73.1226 1 75.2559 1C77.3893 1 79.0026 1.61333 80.0959 2.84C81.1893 4.04 81.7359 5.77333 81.7359 8.04V8.92H77.5759V7.76C77.5759 5.92 76.8426 5 75.3759 5C73.9093 5 73.1759 5.92 73.1759 7.76C73.1759 8.53333 73.3359 9.26667 73.6559 9.96C73.9759 10.6533 74.3893 11.28 74.8959 11.84C75.4026 12.4 75.9626 12.96 76.5759 13.52C77.1893 14.0533 77.7893 14.6267 78.3759 15.24C78.9893 15.8267 79.5493 16.4667 80.0559 17.16C80.5626 17.8267 80.9759 18.6267 81.2959 19.56C81.6159 20.4933 81.7759 21.5067 81.7759 22.6C81.7759 24.8667 81.2159 26.6133 80.0959 27.84C78.9759 29.04 77.3493 29.64 75.2159 29.64C73.0826 29.64 71.4559 29.04 70.3359 27.84C69.2159 26.6133 68.6559 24.8667 68.6559 22.6V20.88H72.8159V22.88C72.8159 24.6933 73.5759 25.6 75.0959 25.6C76.6159 25.6 77.3759 24.6933 77.3759 22.88C77.3759 21.84 77.0826 20.8667 76.4959 19.96C75.9093 19.0267 75.1893 18.1867 74.3359 17.44C73.5093 16.6933 72.6693 15.92 71.8159 15.12C70.9626 14.2933 70.2426 13.28 69.6559 12.08C69.0693 10.8533 68.7759 9.50667 68.7759 8.04Z" stroke="black" stroke-width="2" mask="url(#path-1-outside-1_2_766)"/>
<path d="M83.0169 5.32V1.32H96.6169V5.32H92.0169V29.32H87.6169V5.32H83.0169Z" stroke="black" stroke-width="2" mask="url(#path-1-outside-1_2_766)"/>
<path d="M102.595 7.76V22.88C102.595 24.72 103.355 25.64 104.875 25.64C106.395 25.64 107.155 24.72 107.155 22.88V7.76C107.155 5.92 106.395 5 104.875 5C103.355 5 102.595 5.92 102.595 7.76ZM98.1947 22.6V8.04C98.1947 5.8 98.768 4.06666 99.9147 2.84C101.061 1.61333 102.715 1 104.875 1C107.035 1 108.688 1.61333 109.835 2.84C110.981 4.06666 111.555 5.8 111.555 8.04V22.6C111.555 24.84 110.981 26.5733 109.835 27.8C108.688 29.0267 107.035 29.64 104.875 29.64C102.715 29.64 101.061 29.0267 99.9147 27.8C98.768 26.5733 98.1947 24.84 98.1947 22.6Z" stroke="black" stroke-width="2" mask="url(#path-1-outside-1_2_766)"/>
<path d="M128.094 29.32H123.614C123.347 28.52 123.214 27.3733 123.214 25.88V21.48C123.214 20.2 122.987 19.2933 122.534 18.76C122.081 18.2 121.347 17.92 120.334 17.92H118.814V29.32H114.414V1.32H121.054C123.321 1.32 124.974 1.85333 126.014 2.92C127.054 3.96 127.574 5.57333 127.574 7.76V9.96C127.574 12.84 126.614 14.7333 124.694 15.64C126.641 16.4667 127.614 18.4533 127.614 21.6V25.92C127.614 27.44 127.774 28.5733 128.094 29.32ZM120.934 5.32H118.814V13.92H120.534C121.414 13.92 122.067 13.6933 122.494 13.24C122.947 12.7867 123.174 12.0267 123.174 10.96V8.2C123.174 6.28 122.427 5.32 120.934 5.32Z" stroke="black" stroke-width="2" mask="url(#path-1-outside-1_2_766)"/>
<path d="M134.908 5.32V13.12H140.948V17.12H134.908V25.32H142.508V29.32H130.508V1.32H142.508V5.32H134.908Z" stroke="black" stroke-width="2" mask="url(#path-1-outside-1_2_766)"/>
</g>
<defs>
<filter id="filter0_d_2_766" x="0" y="0" width="147.508" height="38.6401" filterUnits="userSpaceOnUse" color-interpolation-filters="sRGB">
<feFlood flood-opacity="0" result="BackgroundImageFix"/>
<feColorMatrix in="SourceAlpha" type="matrix" values="0 0 0 0 0 0 0 0 0 0 0 0 0 0 0 0 0 0 127 0" result="hardAlpha"/>
<feOffset dy="4"/>
<feGaussianBlur stdDeviation="2"/>
<feComposite in2="hardAlpha" operator="out"/>
<feColorMatrix type="matrix" values="0 0 0 0 0 0 0 0 0 0 0 0 0 0 0 0 0 0 0.25 0"/>
<feBlend mode="normal" in2="BackgroundImageFix" result="effect1_dropShadow_2_766"/>
<feBlend mode="normal" in="SourceGraphic" in2="effect1_dropShadow_2_766" result="shape"/>
</filter>
</defs>
</svg>
